# xmcd CD database file
#
# Track frame offsets:
#	150
#	21517
#	44310
#	78272
#	98783
#	120673
#	138984
#	167832
#	193774
#	213950
#
# Disc length: 3109 seconds
#
# Revision: 0
# Processed by: cddbd v1.4PL0 Copyright (c) Steve Scherf et al.
# Submitted via: CDex 1.50beta10
#
DISCID=850c230a
DTITLE=Caroline de Rooij - River
DYEAR=2000
DGENRE=Jazz
TTITLE0=Someday You''ll Leave Me
TTITLE1=Nature Boy
TTITLE2=Love Dance
TTITLE3=Wheelers and Dealers
TTITLE4=Longing
TTITLE5=High Wire
TTITLE6=River
TTITLE7=The Harbour
TTITLE8=This Is New
TTITLE9=What Are You Doing ...
EXTD=YEAR: 2000
EXTT0=
EXTT1=
EXTT2=
EXTT3=
EXTT4=
EXTT5=
EXTT6=
EXTT7=
EXTT8=
EXTT9=
PLAYORDER=
